<svg width="277" height="80" viewBox="0 0 277 80" fill="none" xmlns="http://www.w3.org/2000/svg">
<line x1="121.187" y1="72.0166" x2="121.187" y2="15.1892" stroke="black" stroke-opacity="0.38" stroke-width="0.88782"/>
<path d="M31.2114 56.0475C31.8328 55.0946 32.6097 54.3489 33.5419 53.8102C34.4741 53.2509 35.5099 52.9712 36.6493 52.9712V58.5956H35.1888C33.863 58.5956 32.8686 58.8856 32.2057 59.4657C31.5428 60.025 31.2114 61.0193 31.2114 62.4487V70.4968H25.8978V53.1577H31.2114V56.0475ZM41.8614 51.3554C40.9292 51.3554 40.1627 51.0861 39.5619 50.5475C38.9819 49.9882 38.6919 49.3046 38.6919 48.4966C38.6919 47.668 38.9819 46.9844 39.5619 46.4458C40.1627 45.8864 40.9292 45.6068 41.8614 45.6068C42.7729 45.6068 43.5187 45.8864 44.0987 46.4458C44.6995 46.9844 44.9998 47.668 44.9998 48.4966C44.9998 49.3046 44.6995 49.9882 44.0987 50.5475C43.5187 51.0861 42.7729 51.3554 41.8614 51.3554ZM44.5027 53.1577V70.4968H39.1891V53.1577H44.5027ZM58.9184 52.9712C60.9486 52.9712 62.5644 53.6342 63.7659 54.96C64.9882 56.2651 65.5993 58.0673 65.5993 60.3668V70.4968H60.3168V61.0815C60.3168 59.9214 60.0164 59.0203 59.4156 58.3781C58.8149 57.7359 58.0069 57.4148 56.9919 57.4148C55.9768 57.4148 55.1689 57.7359 54.5681 58.3781C53.9674 59.0203 53.667 59.9214 53.667 61.0815V70.4968H48.3534V53.1577H53.667V55.4571C54.2056 54.6907 54.9306 54.0899 55.8421 53.6549C56.7536 53.1991 57.7791 52.9712 58.9184 52.9712ZM78.9556 65.9911V70.4968H76.2522C74.3257 70.4968 72.8238 70.0307 71.7465 69.0985C70.6693 68.1456 70.1307 66.6023 70.1307 64.4685V57.5702H68.0177V53.1577H70.1307V48.9317H75.4443V53.1577H78.9246V57.5702H75.4443V64.5307C75.4443 65.0486 75.5686 65.4215 75.8172 65.6493C76.0658 65.8772 76.4801 65.9911 77.0602 65.9911H78.9556Z" fill="black"/>
<path d="M83.564 40.955L89.811 40.9359L102.849 40.955C102.849 40.955 107.21 43.2038 105.293 45.8431C103.376 48.4824 91.8505 65.3954 91.8505 65.3954L105.073 71.1323H85.7404C85.7404 71.1323 80.7364 69.7433 83.2964 66.0064C87.3947 60.024 96.1276 47.0651 96.1276 47.0651L87.8389 43.1555L86.0633 42.2676L83.564 40.955Z" fill="#F35D26"/>
<path d="M2.66345 59.8267H15.1073L2.66345 72.2706V59.8267Z" fill="#0C6FFF"/>
<rect x="2.66345" y="44.8942" width="12.4439" height="12.4439" fill="#0C6FFF"/>
<rect x="2.66345" y="29.9614" width="12.4439" height="12.4439" fill="#0C6FFF"/>
<rect x="2.66345" y="15.0286" width="12.4439" height="12.4439" fill="#0C6FFF"/>
<path d="M2.66345 12.5401L15.1073 0.0961914V12.5401H2.66345Z" fill="#0C6FFF"/>
<rect x="17.5962" y="0.0961914" width="12.4439" height="12.4439" fill="#0C6FFF"/>
<path d="M32.5287 0.0961914L44.9726 12.5401H32.5287V0.0961914Z" fill="#0C6FFF"/>
<rect x="32.5287" y="16.2731" width="12.4439" height="12.4439" fill="#0C6FFF"/>
<path d="M32.5287 29.9614H44.9726L32.5287 42.4053V29.9614Z" fill="#0C6FFF"/>
<rect x="17.5962" y="29.9614" width="12.4439" height="12.4439" fill="#0C6FFF"/>
<path d="M139.454 32.1521C139.213 32.1947 139.092 32.3438 139.092 32.5995V42.9551H136.429L130.42 32.9618L130.995 32.9192V41.1865C130.995 41.428 131.116 41.5701 131.357 41.6127L132.764 41.8471V42.9551H127.799V41.8471L129.014 41.6127C129.255 41.5701 129.376 41.428 129.376 41.1865V32.5995C129.376 32.3438 129.255 32.1947 129.014 32.1521L127.799 31.9177V30.7458H132.402L138.048 40.0572L137.473 40.0998V32.5995C137.473 32.3438 137.352 32.1947 137.111 32.1521L135.832 31.9177V30.7458H140.584V31.9177L139.454 32.1521ZM141.542 38.5231C141.542 36.9605 141.918 35.7744 142.671 34.9647C143.438 34.1408 144.525 33.7288 145.931 33.7288C147.167 33.7288 148.062 34.0201 148.616 34.6025C149.17 35.1849 149.447 35.9235 149.447 36.8185C149.447 37.0315 149.433 37.2517 149.404 37.479C149.39 37.7063 149.361 37.9194 149.319 38.1182H143.459V37.0955H146.89C146.904 37.0244 146.911 36.9605 146.911 36.9037C146.911 36.8469 146.911 36.7758 146.911 36.6906C146.911 36.1508 146.819 35.7105 146.634 35.3695C146.449 35.0286 146.151 34.8582 145.739 34.8582C145.327 34.8582 145.001 35.0854 144.759 35.54C144.518 35.9804 144.397 36.8114 144.397 38.033C144.397 38.8285 144.461 39.4819 144.589 39.9933C144.716 40.4905 144.937 40.8598 145.249 41.1013C145.576 41.3428 146.009 41.4635 146.549 41.4635C146.975 41.4635 147.387 41.3925 147.785 41.2505C148.182 41.1084 148.516 40.8882 148.786 40.5899L149.383 41.0374C149.184 41.7334 148.751 42.2661 148.083 42.6355C147.43 42.9906 146.634 43.1682 145.697 43.1682C144.745 43.1682 143.964 42.9835 143.353 42.6142C142.742 42.2306 142.287 41.6908 141.989 40.9948C141.691 40.2987 141.542 39.4748 141.542 38.5231ZM143.225 33.1962L142.373 32.3865L144.738 29.6804L146.421 29.5312L148.957 32.3225L148.062 33.1748L145.547 31.4276L143.225 33.1962ZM148.978 29.9361C148.197 29.5099 147.522 29.0838 146.954 28.6576C146.386 28.2173 145.881 27.7627 145.441 27.2939L146.932 25.9089L149.702 29.0838L148.978 29.9361ZM156.897 42.9551V41.8471L157.43 41.6979C157.544 41.6695 157.629 41.6198 157.686 41.5488C157.742 41.4777 157.771 41.3783 157.771 41.2505V37.3938C157.771 36.6551 157.664 36.1366 157.451 35.8383C157.238 35.54 156.904 35.3908 156.45 35.3908C156.151 35.3908 155.839 35.4548 155.512 35.5826C155.2 35.6963 154.901 35.8738 154.617 36.1153L154.639 35.3269C155.022 34.7871 155.484 34.3894 156.024 34.1337C156.563 33.8638 157.174 33.7288 157.856 33.7288C158.907 33.7288 159.618 34.0201 159.987 34.6025C160.37 35.1849 160.562 36.0159 160.562 37.0955V41.2505C160.562 41.5062 160.683 41.6553 160.924 41.6979L161.777 41.8471V42.9551H156.897ZM151.123 42.9551V41.8471L151.975 41.6979C152.202 41.6553 152.316 41.5062 152.316 41.2505V35.9875C152.316 35.7318 152.202 35.5826 151.975 35.54L151.038 35.3482V34.1976C151.577 34.0556 152.146 33.949 152.742 33.878C153.339 33.807 153.9 33.7644 154.426 33.7502L154.83 34.0911L155.129 35.6892V41.2505C155.129 41.4777 155.242 41.6269 155.47 41.6979L155.981 41.8471V42.9551H151.123ZM168.519 35.4122L167.326 35.1991V34.1763L168.306 33.9845C168.448 33.9561 168.547 33.9135 168.604 33.8567C168.661 33.7857 168.718 33.6862 168.775 33.5584L169.648 31.2998H171.204L171.289 33.9419H173.718V35.3695H171.332V39.7376C171.332 40.32 171.417 40.7249 171.587 40.9522C171.758 41.1652 172.02 41.2718 172.376 41.2718C172.574 41.2718 172.795 41.2363 173.036 41.1652C173.278 41.0942 173.498 40.9735 173.697 40.803L174.229 41.3996C173.974 41.9678 173.569 42.394 173.015 42.6781C172.461 42.948 171.829 43.0829 171.118 43.0829C170.579 43.0829 170.11 43.0048 169.712 42.8485C169.329 42.6781 169.03 42.394 168.817 41.9962C168.618 41.5985 168.519 41.0516 168.519 40.3555V35.4122ZM177.825 43.1255C177.043 43.1255 176.418 42.9196 175.949 42.5076C175.481 42.0957 175.246 41.5488 175.246 40.8669C175.246 40.2987 175.403 39.8228 175.715 39.4393C176.042 39.0558 176.468 38.7646 176.994 38.5657C177.519 38.3526 178.08 38.2319 178.677 38.2035L180.701 38.0969V39.1197L179.401 39.2049C178.904 39.2191 178.563 39.3541 178.379 39.6098C178.194 39.8655 178.102 40.178 178.102 40.5473C178.102 40.9024 178.173 41.1652 178.315 41.3357C178.457 41.5062 178.691 41.5914 179.018 41.5914C179.345 41.5914 179.65 41.5275 179.934 41.3996C180.218 41.2576 180.453 41.0729 180.637 40.8456L180.85 41.4422C180.58 41.982 180.183 42.4011 179.657 42.6994C179.131 42.9835 178.521 43.1255 177.825 43.1255ZM175.502 35.9022C175.758 35.2346 176.205 34.709 176.844 34.3255C177.498 33.9277 178.35 33.7288 179.401 33.7288C180.666 33.7288 181.575 34.0201 182.129 34.6025C182.683 35.1707 182.96 36.023 182.96 37.1594V41.1865C182.96 41.4706 183.095 41.6269 183.365 41.6553L184.132 41.7618V42.8059C183.919 42.8627 183.634 42.9267 183.279 42.9977C182.938 43.0687 182.612 43.1042 182.299 43.1042C181.759 43.1042 181.312 42.9906 180.957 42.7633C180.602 42.5218 180.367 42.0957 180.254 41.4848V37.202C180.254 36.577 180.104 36.1437 179.806 35.9022C179.522 35.6607 179.11 35.54 178.57 35.54C178.102 35.54 177.661 35.6181 177.249 35.7744C176.852 35.9164 176.482 36.1437 176.141 36.4562L175.502 35.9022ZM181.66 30.5114C181.66 30.8665 181.568 31.179 181.383 31.4489C181.198 31.7188 180.872 31.9745 180.403 32.216C180.19 32.3154 180.062 32.3936 180.019 32.4504C179.977 32.5072 179.955 32.5569 179.955 32.5995C179.955 32.6422 179.955 32.6848 179.955 32.7274C179.97 32.77 179.984 32.8197 179.998 32.8765L179.124 33.1535C178.982 32.9973 178.862 32.8268 178.762 32.6422C178.663 32.4575 178.613 32.2941 178.613 32.1521C178.613 31.9958 178.677 31.8467 178.805 31.7046C178.947 31.5626 179.139 31.4205 179.38 31.2785C179.494 31.2074 179.586 31.1364 179.657 31.0654C179.742 30.9802 179.785 30.8807 179.785 30.7671C179.785 30.5256 179.636 30.4048 179.337 30.4048C179.153 30.4048 178.947 30.4475 178.719 30.5327C178.492 30.6179 178.272 30.7245 178.059 30.8523L177.505 29.723C177.803 29.4815 178.137 29.2968 178.506 29.169C178.89 29.027 179.288 28.9559 179.7 28.9559C180.31 28.9559 180.786 29.098 181.127 29.3821C181.482 29.652 181.66 30.0284 181.66 30.5114ZM191.25 42.9551V41.8471L191.783 41.6979C191.896 41.6695 191.982 41.6198 192.038 41.5488C192.095 41.4777 192.124 41.3783 192.124 41.2505V37.3938C192.124 36.6551 192.017 36.1366 191.804 35.8383C191.591 35.54 191.257 35.3908 190.803 35.3908C190.504 35.3908 190.192 35.4548 189.865 35.5826C189.553 35.6963 189.254 35.8738 188.97 36.1153L188.991 35.3269C189.375 34.7871 189.837 34.3894 190.376 34.1337C190.916 33.8638 191.527 33.7288 192.209 33.7288C193.26 33.7288 193.97 34.0201 194.34 34.6025C194.723 35.1849 194.915 36.0159 194.915 37.0955V41.2505C194.915 41.5062 195.036 41.6553 195.277 41.6979L196.13 41.8471V42.9551H191.25ZM185.476 42.9551V41.8471L186.328 41.6979C186.555 41.6553 186.669 41.5062 186.669 41.2505V35.9875C186.669 35.7318 186.555 35.5826 186.328 35.54L185.39 35.3482V34.1976C185.93 34.0556 186.498 33.949 187.095 33.878C187.692 33.807 188.253 33.7644 188.778 33.7502L189.183 34.0911L189.482 35.6892V41.2505C189.482 41.4777 189.595 41.6269 189.822 41.6979L190.334 41.8471V42.9551H185.476ZM206.654 43.6156C206.654 44.3401 206.434 44.9651 205.994 45.4907C205.568 46.0305 204.957 46.4424 204.161 46.7265C203.366 47.0248 202.421 47.174 201.327 47.174C199.921 47.174 198.905 46.9396 198.28 46.4708C197.67 46.0163 197.364 45.441 197.364 44.7449C197.364 44.0773 197.599 43.573 198.067 43.2321C198.536 42.9054 199.161 42.671 199.942 42.5289L200.795 42.5502C200.596 42.6923 200.418 42.9054 200.262 43.1895C200.106 43.4736 200.028 43.8287 200.028 44.2548C200.028 44.7378 200.156 45.1356 200.411 45.4481C200.681 45.7606 201.143 45.9168 201.796 45.9168C202.421 45.9168 202.904 45.7606 203.245 45.4481C203.6 45.1498 203.778 44.7165 203.778 44.1483C203.778 43.7364 203.671 43.4381 203.458 43.2534C203.259 43.0687 202.911 42.9764 202.414 42.9764H200.816C199.822 42.9764 199.126 42.813 198.728 42.4863C198.33 42.1454 198.131 41.7263 198.131 41.2292C198.131 40.732 198.288 40.3342 198.6 40.0359C198.927 39.7376 199.346 39.5174 199.857 39.3754L200.667 39.4819C200.44 39.6382 200.283 39.8015 200.198 39.972C200.113 40.1283 200.07 40.2845 200.07 40.4408C200.07 40.7107 200.198 40.9024 200.454 41.0161C200.71 41.1155 201.143 41.1652 201.754 41.1652H203.33C204.41 41.1652 205.234 41.3641 205.802 41.7618C206.37 42.1596 206.654 42.7775 206.654 43.6156ZM205.525 36.6906C205.525 37.6282 205.205 38.3952 204.566 38.9918C203.941 39.5743 202.911 39.8655 201.477 39.8655C200.511 39.8655 199.744 39.7376 199.175 39.4819C198.621 39.212 198.224 38.8569 197.982 38.4165C197.755 37.962 197.641 37.4648 197.641 36.925C197.641 36.2574 197.797 35.6892 198.11 35.2204C198.423 34.7374 198.884 34.3681 199.495 34.1124C200.12 33.8567 200.88 33.7288 201.775 33.7288C202.982 33.7288 203.906 33.9703 204.545 34.4533C205.198 34.9363 205.525 35.6821 205.525 36.6906ZM200.433 36.7758C200.433 37.4719 200.532 37.9762 200.731 38.2887C200.944 38.6012 201.249 38.7575 201.647 38.7575C202.073 38.7575 202.372 38.5941 202.542 38.2674C202.712 37.9265 202.798 37.4293 202.798 36.7758C202.798 36.0656 202.705 35.5613 202.521 35.263C202.35 34.9505 202.059 34.7942 201.647 34.7942C201.377 34.7942 201.15 34.8653 200.965 35.0073C200.795 35.1352 200.66 35.3482 200.56 35.6465C200.475 35.9306 200.433 36.3071 200.433 36.7758ZM205.035 35.7744L204.353 35.2417C204.552 34.7729 204.815 34.4036 205.142 34.1337C205.482 33.8638 205.83 33.7288 206.186 33.7288C206.328 33.7288 206.47 33.7502 206.612 33.7928C206.768 33.8212 206.896 33.8496 206.995 33.878V35.7744H205.035ZM216.708 41.2505C216.708 41.5062 216.829 41.6553 217.07 41.6979L217.901 41.8471V42.9551H212.702V41.8471L213.533 41.6979C213.775 41.6553 213.895 41.5062 213.895 41.2505V35.9875C213.895 35.7318 213.782 35.5826 213.554 35.54L212.617 35.3482V34.1976C213.171 34.0414 213.789 33.9277 214.471 33.8567C215.152 33.7857 215.77 33.7502 216.324 33.7502L216.708 34.0911V41.2505ZM216.687 31.2998C216.687 31.7259 216.545 32.0668 216.26 32.3225C215.991 32.5782 215.628 32.7061 215.174 32.7061C214.705 32.7061 214.329 32.5782 214.044 32.3225C213.775 32.0668 213.64 31.7259 213.64 31.2998C213.64 30.8736 213.775 30.5398 214.044 30.2983C214.329 30.0426 214.705 29.9148 215.174 29.9148C215.628 29.9148 215.991 30.0426 216.26 30.2983C216.545 30.5398 216.687 30.8736 216.687 31.2998ZM225.104 42.9551V41.8471L225.636 41.6979C225.75 41.6695 225.835 41.6198 225.892 41.5488C225.949 41.4777 225.977 41.3783 225.977 41.2505V37.3938C225.977 36.6551 225.871 36.1366 225.658 35.8383C225.444 35.54 225.111 35.3908 224.656 35.3908C224.358 35.3908 224.045 35.4548 223.719 35.5826C223.406 35.6963 223.108 35.8738 222.824 36.1153L222.845 35.3269C223.228 34.7871 223.69 34.3894 224.23 34.1337C224.77 33.8638 225.381 33.7288 226.062 33.7288C227.114 33.7288 227.824 34.0201 228.193 34.6025C228.577 35.1849 228.768 36.0159 228.768 37.0955V41.2505C228.768 41.5062 228.889 41.6553 229.131 41.6979L229.983 41.8471V42.9551H225.104ZM219.329 42.9551V41.8471L220.181 41.6979C220.409 41.6553 220.522 41.5062 220.522 41.2505V35.9875C220.522 35.7318 220.409 35.5826 220.181 35.54L219.244 35.3482V34.1976C219.784 34.0556 220.352 33.949 220.949 33.878C221.545 33.807 222.106 33.7644 222.632 33.7502L223.037 34.0911L223.335 35.6892V41.2505C223.335 41.4777 223.449 41.6269 223.676 41.6979L224.187 41.8471V42.9551H219.329ZM238.259 43.1255C237.478 43.1255 236.853 42.9196 236.384 42.5076C235.915 42.0957 235.681 41.5488 235.681 40.8669C235.681 40.2987 235.837 39.8228 236.15 39.4393C236.477 39.0558 236.903 38.7646 237.428 38.5657C237.954 38.3526 238.515 38.2319 239.112 38.2035L241.136 38.0969V39.1197L239.836 39.2049C239.339 39.2191 238.998 39.3541 238.813 39.6098C238.629 39.8655 238.536 40.178 238.536 40.5473C238.536 40.9024 238.607 41.1652 238.749 41.3357C238.891 41.5062 239.126 41.5914 239.453 41.5914C239.779 41.5914 240.085 41.5275 240.369 41.3996C240.653 41.2576 240.887 41.0729 241.072 40.8456L241.285 41.4422C241.015 41.982 240.617 42.4011 240.092 42.6994C239.566 42.9835 238.955 43.1255 238.259 43.1255ZM235.937 35.9022C236.192 35.2346 236.64 34.709 237.279 34.3255C237.933 33.9277 238.785 33.7288 239.836 33.7288C241.1 33.7288 242.009 34.0201 242.563 34.6025C243.117 35.1707 243.394 36.023 243.394 37.1594V41.1865C243.394 41.4706 243.529 41.6269 243.799 41.6553L244.566 41.7618V42.8059C244.353 42.8627 244.069 42.9267 243.714 42.9977C243.373 43.0687 243.046 43.1042 242.734 43.1042C242.194 43.1042 241.747 42.9906 241.392 42.7633C241.036 42.5218 240.802 42.0957 240.688 41.4848V37.202C240.688 36.577 240.539 36.1437 240.241 35.9022C239.957 35.6607 239.545 35.54 239.005 35.54C238.536 35.54 238.096 35.6181 237.684 35.7744C237.286 35.9164 236.917 36.1437 236.576 36.4562L235.937 35.9022ZM237.407 33.1962L236.555 32.3865L238.92 29.6804L240.603 29.5312L243.139 32.3225L242.244 33.1748L239.73 31.4276L237.407 33.1962ZM242.286 29.9361L241.583 29.1051L244.353 25.9089L245.845 27.2939C245.405 27.7627 244.9 28.2173 244.332 28.6576C243.764 29.0838 243.082 29.5099 242.286 29.9361ZM251.685 42.9551V41.8471L252.218 41.6979C252.331 41.6695 252.416 41.6198 252.473 41.5488C252.53 41.4777 252.558 41.3783 252.558 41.2505V37.3938C252.558 36.6551 252.452 36.1366 252.239 35.8383C252.026 35.54 251.692 35.3908 251.237 35.3908C250.939 35.3908 250.627 35.4548 250.3 35.5826C249.987 35.6963 249.689 35.8738 249.405 36.1153L249.426 35.3269C249.81 34.7871 250.271 34.3894 250.811 34.1337C251.351 33.8638 251.962 33.7288 252.644 33.7288C253.695 33.7288 254.405 34.0201 254.774 34.6025C255.158 35.1849 255.35 36.0159 255.35 37.0955V41.2505C255.35 41.5062 255.471 41.6553 255.712 41.6979L256.564 41.8471V42.9551H251.685ZM245.91 42.9551V41.8471L246.763 41.6979C246.99 41.6553 247.104 41.5062 247.104 41.2505V35.9875C247.104 35.7318 246.99 35.5826 246.763 35.54L245.825 35.3482V34.1976C246.365 34.0556 246.933 33.949 247.53 33.878C248.126 33.807 248.688 33.7644 249.213 33.7502L249.618 34.0911L249.916 35.6892V41.2505C249.916 41.4777 250.03 41.6269 250.257 41.6979L250.769 41.8471V42.9551H245.91ZM147.186 61.4122L145.993 61.1991V60.1763L146.973 59.9845C147.115 59.9561 147.214 59.9135 147.271 59.8567C147.328 59.7857 147.385 59.6862 147.442 59.5584L148.315 57.2998H149.871L149.956 59.9419H152.385V61.3695H149.998V65.7376C149.998 66.32 150.084 66.7249 150.254 66.9522C150.425 67.1652 150.687 67.2718 151.043 67.2718C151.241 67.2718 151.462 67.2363 151.703 67.1652C151.945 67.0942 152.165 66.9735 152.364 66.803L152.896 67.3996C152.641 67.9678 152.236 68.394 151.682 68.6781C151.128 68.948 150.496 69.0829 149.785 69.0829C149.246 69.0829 148.777 69.0048 148.379 68.8485C147.996 68.6781 147.697 68.394 147.484 67.9962C147.285 67.5985 147.186 67.0516 147.186 66.3555V61.4122ZM157.512 62.4988C157.767 61.9306 158.052 61.4406 158.364 61.0286C158.691 60.6025 159.039 60.2757 159.408 60.0485C159.792 59.8212 160.189 59.7075 160.601 59.7075C160.772 59.7075 160.985 59.7359 161.241 59.7928C161.496 59.8354 161.695 59.8922 161.837 59.9632C161.894 60.4036 161.901 60.9363 161.859 61.5613C161.816 62.1863 161.731 62.7901 161.603 63.3725H160.388L160.111 62.4775C160.054 62.2787 159.976 62.1508 159.877 62.094C159.792 62.0372 159.657 62.0088 159.472 62.0088C159.245 62.0088 158.975 62.0727 158.662 62.2005C158.35 62.3284 158.052 62.5557 157.767 62.8824L157.512 62.4988ZM158.13 62.4562V67.2505C158.13 67.5062 158.258 67.6553 158.513 67.6979L159.813 67.8471V68.9551H154.124V67.8471L154.955 67.6979C155.196 67.6553 155.317 67.5062 155.317 67.2505V61.9662C155.317 61.7105 155.203 61.5613 154.976 61.5187L154.039 61.3269V60.1763C154.536 60.0343 155.068 59.9277 155.637 59.8567C156.219 59.7857 156.752 59.7431 157.235 59.7288L157.682 60.0698L158.13 62.4562ZM174.433 58.5569C174.433 59.1251 174.227 59.6152 173.815 60.0272C173.404 60.4391 172.828 60.8582 172.09 61.2843L172.324 60.8795V67.1865C172.324 67.357 172.359 67.4777 172.43 67.5488C172.501 67.6056 172.601 67.6411 172.729 67.6553L173.496 67.7618V68.8059C173.311 68.8627 173.034 68.9267 172.665 68.9977C172.296 69.0687 171.947 69.1042 171.621 69.1042C171.166 69.1042 170.783 69.019 170.47 68.8485C170.158 68.6781 169.916 68.4224 169.746 68.0815C169.433 68.4224 169.057 68.6852 168.616 68.8698C168.19 69.0403 167.65 69.1255 166.997 69.1255C166.074 69.1255 165.378 68.8769 164.909 68.3798C164.454 67.8826 164.227 67.1155 164.227 66.0785V61.9448C164.227 61.7034 164.113 61.5542 163.886 61.4974L163.055 61.2843V60.1337C163.595 60.0058 164.191 59.9064 164.845 59.8354C165.513 59.7644 166.116 59.7288 166.656 59.7288L167.018 60.0698V65.7163C167.018 66.455 167.118 66.9593 167.317 67.2292C167.53 67.4848 167.849 67.6127 168.275 67.6127C168.489 67.6127 168.702 67.5843 168.915 67.5275C169.128 67.4564 169.334 67.357 169.533 67.2292V61.9235C169.533 61.6678 169.419 61.5187 169.192 61.4761L168.297 61.263V60.1124C168.851 60.0414 169.447 59.9774 170.087 59.9206C170.74 59.8496 171.301 59.807 171.77 59.7928C172.011 59.7786 172.189 59.7288 172.303 59.6436C172.43 59.5442 172.494 59.3879 172.494 59.1748C172.494 58.9192 172.395 58.6564 172.196 58.3865C172.011 58.1166 171.798 57.868 171.557 57.6407L172.793 56.4688C173.276 56.7387 173.666 57.0512 173.965 57.4063C174.277 57.7472 174.433 58.1308 174.433 58.5569ZM168.552 72.7478C168.084 72.7478 167.707 72.62 167.423 72.3643C167.153 72.1086 167.018 71.7677 167.018 71.3415C167.018 70.9154 167.153 70.5745 167.423 70.3188C167.707 70.0773 168.084 69.9565 168.552 69.9565C169.007 69.9565 169.369 70.0773 169.639 70.3188C169.923 70.5745 170.065 70.9154 170.065 71.3415C170.065 71.7677 169.923 72.1086 169.639 72.3643C169.369 72.62 169.007 72.7478 168.552 72.7478ZM175.181 64.587C175.181 63.5216 175.373 62.6338 175.756 61.9235C176.154 61.1991 176.694 60.6522 177.376 60.2828C178.058 59.9135 178.832 59.7288 179.698 59.7288C180.252 59.7288 180.799 59.7928 181.339 59.9206C181.879 60.0485 182.326 60.2118 182.681 60.4107C182.724 60.9363 182.724 61.4548 182.681 61.9662C182.653 62.4775 182.596 62.9747 182.511 63.4577H181.147L180.7 61.9022C180.643 61.7176 180.593 61.5755 180.551 61.4761C180.508 61.3766 180.451 61.2985 180.38 61.2417C180.295 61.1707 180.188 61.1067 180.06 61.0499C179.933 60.9931 179.791 60.9647 179.634 60.9647C179.237 60.9647 178.896 61.2133 178.612 61.7105C178.327 62.1934 178.185 63.0244 178.185 64.2035C178.185 65.2831 178.342 66.0998 178.654 66.6538C178.967 67.1936 179.492 67.4635 180.231 67.4635C180.685 67.4635 181.083 67.3854 181.424 67.2292C181.765 67.0587 182.028 66.8953 182.213 66.7391L182.809 67.2078C182.624 67.7761 182.227 68.2448 181.616 68.6142C181.019 68.9835 180.252 69.1682 179.315 69.1682C178.363 69.1682 177.582 68.9693 176.971 68.5715C176.36 68.1596 175.905 67.6056 175.607 66.9095C175.323 66.2135 175.181 65.4393 175.181 64.587ZM189.81 61.4122L188.616 61.1991V60.1763L189.596 59.9845C189.739 59.9561 189.838 59.9135 189.895 59.8567C189.952 59.7857 190.008 59.6862 190.065 59.5584L190.939 57.2998H192.494L192.58 59.9419H195.009V61.3695H192.622V65.7376C192.622 66.32 192.707 66.7249 192.878 66.9522C193.048 67.1652 193.311 67.2718 193.666 67.2718C193.865 67.2718 194.085 67.2363 194.327 67.1652C194.568 67.0942 194.788 66.9735 194.987 66.803L195.52 67.3996C195.264 67.9678 194.859 68.394 194.305 68.6781C193.751 68.948 193.119 69.0829 192.409 69.0829C191.869 69.0829 191.401 69.0048 191.003 68.8485C190.619 68.6781 190.321 68.394 190.108 67.9962C189.909 67.5985 189.81 67.0516 189.81 66.3555V61.4122ZM203.59 67.4848C203.22 68.0104 202.794 68.4153 202.311 68.6994C201.828 68.9835 201.175 69.1255 200.351 69.1255C199.428 69.1255 198.732 68.8769 198.263 68.3798C197.808 67.8826 197.581 67.1155 197.581 66.0785V61.9448C197.581 61.7034 197.467 61.5542 197.24 61.4974L196.409 61.2843V60.1337C196.949 60.0058 197.546 59.9064 198.199 59.8354C198.867 59.7644 199.47 59.7288 200.01 59.7288L200.372 60.0698V65.7163C200.372 66.455 200.472 66.9593 200.671 67.2292C200.884 67.4848 201.203 67.6127 201.629 67.6127C201.914 67.6127 202.191 67.5559 202.46 67.4422C202.745 67.3286 203.014 67.1723 203.27 66.9735L203.59 67.4848ZM206.85 68.8059C206.665 68.8627 206.388 68.9267 206.019 68.9977C205.65 69.0687 205.302 69.1042 204.975 69.1042C204.392 69.1042 203.924 68.9622 203.568 68.6781C203.228 68.394 203 67.9678 202.887 67.3996V61.9235C202.887 61.6678 202.773 61.5187 202.546 61.4761L201.651 61.263V60.1124C202.205 59.9845 202.816 59.8922 203.483 59.8354C204.151 59.7644 204.762 59.7288 205.316 59.7288L205.678 60.0698V67.1865C205.678 67.357 205.713 67.4777 205.784 67.5488C205.856 67.6056 205.955 67.6411 206.083 67.6553L206.85 67.7618V68.8059ZM207.947 71.4481C208.686 71.3344 209.332 71.2066 209.886 71.0645C210.454 70.9225 210.944 70.7165 211.356 70.4466C211.768 70.1767 212.123 69.7932 212.422 69.296C212.734 68.813 213.011 68.1809 213.253 67.3996L215.128 61.3056L214.041 61.0712V59.9419H217.557V61.0286L216.96 61.2204C216.846 61.263 216.754 61.3127 216.683 61.3695C216.612 61.4264 216.555 61.5116 216.513 61.6252L213.956 69.1042C213.515 70.3969 212.99 71.3628 212.379 72.0021C211.768 72.6413 211.001 72.9609 210.078 72.9609C209.723 72.9609 209.353 72.9396 208.97 72.897C208.6 72.8544 208.259 72.8047 207.947 72.7478V71.4481ZM213.167 68.9551H211.484L208.735 61.6252C208.65 61.4122 208.494 61.2772 208.267 61.2204L207.67 61.0286V59.9419H212.848V61.0712L211.697 61.3269L213.807 67.7192L213.167 68.9551ZM218.242 64.5231C218.242 62.9605 218.619 61.7744 219.371 60.9647C220.139 60.1408 221.225 59.7288 222.632 59.7288C223.867 59.7288 224.762 60.0201 225.316 60.6025C225.87 61.1849 226.147 61.9235 226.147 62.8185C226.147 63.0315 226.133 63.2517 226.105 63.479C226.091 63.7063 226.062 63.9194 226.019 64.1182H220.16V63.0955H223.59C223.605 63.0244 223.612 62.9605 223.612 62.9037C223.612 62.8469 223.612 62.7758 223.612 62.6906C223.612 62.1508 223.519 61.7105 223.335 61.3695C223.15 61.0286 222.852 60.8582 222.44 60.8582C222.028 60.8582 221.701 61.0854 221.46 61.54C221.218 61.9804 221.097 62.8114 221.097 64.033C221.097 64.8285 221.161 65.4819 221.289 65.9933C221.417 66.4905 221.637 66.8598 221.95 67.1013C222.276 67.3428 222.71 67.4635 223.249 67.4635C223.676 67.4635 224.088 67.3925 224.485 67.2505C224.883 67.1084 225.217 66.8882 225.487 66.5899L226.083 67.0374C225.885 67.7334 225.451 68.2661 224.784 68.6355C224.13 68.9906 223.335 69.1682 222.397 69.1682C221.445 69.1682 220.664 68.9835 220.053 68.6142C219.443 68.2306 218.988 67.6908 218.69 66.9948C218.391 66.2987 218.242 65.4748 218.242 64.5231ZM219.925 59.1962L219.073 58.3865L221.438 55.6804L223.122 55.5312L225.657 58.3225L224.762 59.1748L222.248 57.4276L219.925 59.1962ZM224.805 55.9361L224.102 55.1051L226.872 51.9089L228.363 53.2939C227.923 53.7627 227.419 54.2173 226.85 54.6576C226.282 55.0838 225.6 55.5099 224.805 55.9361ZM233.598 68.9551V67.8471L234.131 67.6979C234.244 67.6695 234.329 67.6198 234.386 67.5488C234.443 67.4777 234.471 67.3783 234.471 67.2505V63.3938C234.471 62.6551 234.365 62.1366 234.152 61.8383C233.939 61.54 233.605 61.3908 233.15 61.3908C232.852 61.3908 232.54 61.4548 232.213 61.5826C231.9 61.6963 231.602 61.8738 231.318 62.1153L231.339 61.3269C231.723 60.7871 232.184 60.3894 232.724 60.1337C233.264 59.8638 233.875 59.7288 234.557 59.7288C235.608 59.7288 236.318 60.0201 236.687 60.6025C237.071 61.1849 237.263 62.0159 237.263 63.0955V67.2505C237.263 67.5062 237.384 67.6553 237.625 67.6979L238.477 67.8471V68.9551H233.598ZM227.823 68.9551V67.8471L228.676 67.6979C228.903 67.6553 229.017 67.5062 229.017 67.2505V61.9875C229.017 61.7318 228.903 61.5826 228.676 61.54L227.738 61.3482V60.1976C228.278 60.0556 228.846 59.949 229.443 59.878C230.039 59.807 230.601 59.7644 231.126 59.7502L231.531 60.0911L231.829 61.6892V67.2505C231.829 67.4777 231.943 67.6269 232.17 67.6979L232.682 67.8471V68.9551H227.823Z" fill="black" fill-opacity="0.41"/>
</svg>
